<?xml version="1.0" encoding="UTF-8"?>
<svg id="Layer_2" data-name="Layer 2" xmlns="http://www.w3.org/2000/svg" viewBox="0 0 61.65 61.65">
  <defs>
    <style>
      .cls-1 {
        fill: none;
      }

      .cls-2 {
        fill: #fff;
      }
    </style>
  </defs>
  <g id="Layer_1-2" data-name="Layer 1">
    <g>
      <g>
        <path class="cls-2" d="M37.12,34.55c-.45.26-1.01.26-1.46,0l-3.36-1.93v3.88c0,.52-.28,1-.74,1.26-.22.13-.48.2-.74.2-.25,0-.51-.07-.73-.2-.44-.25-.72-.7-.74-1.22v-9.03s7.81,4.51,7.81,4.51c.45.28.7.75.69,1.26,0,.25-.06.51-.19.73-.13.22-.32.41-.54.54Z"/>
        <path class="cls-2" d="M24.53,14.95c.45-.26,1.01-.26,1.46,0l3.36,1.93v-3.88c0-.52.28-1,.74-1.26.22-.13.48-.2.74-.2.25,0,.51.07.73.2.44.25.72.7.74,1.22v9.03s-7.81-4.51-7.81-4.51c-.45-.28-.7-.75-.69-1.26,0-.25.06-.51.19-.73.13-.22.32-.41.54-.54Z"/>
        <path class="cls-2" d="M42.46,24.2c0,.52-.28,1.01-.73,1.27l-3.35,1.94,3.35,1.94c.45.26.73.74.73,1.26,0,.26-.07.51-.2.74-.12.22-.31.41-.54.54-.44.26-.97.28-1.43.03l-7.82-4.52,7.81-4.51c.47-.25,1-.23,1.44.04.22.12.41.31.53.53.13.22.2.48.2.73Z"/>
        <path class="cls-2" d="M19.19,25.3c0-.52.28-1.01.73-1.27l3.35-1.94-3.35-1.94c-.45-.26-.73-.74-.73-1.26,0-.26.07-.51.2-.74.12-.22.31-.41.54-.54.44-.26.97-.28,1.43-.03l7.82,4.52-7.81,4.51c-.47.25-1,.23-1.44-.04-.22-.12-.41-.31-.53-.53-.13-.22-.2-.48-.2-.73Z"/>
        <path class="cls-2" d="M36.17,14.4c.45.26.73.75.73,1.27v3.87s3.36-1.93,3.36-1.93c.45-.26,1.01-.26,1.46,0,.22.13.41.31.54.54.13.22.2.47.2.73,0,.51-.25.98-.68,1.25l-7.82,4.51v-9.02c.02-.53.3-.98.75-1.23.22-.13.47-.2.73-.19.26,0,.51.07.73.2Z"/>
        <path class="cls-2" d="M25.48,35.11c-.45-.26-.73-.75-.73-1.27v-3.87s-3.36,1.93-3.36,1.93c-.45.26-1.01.26-1.46,0-.22-.13-.41-.31-.54-.54-.13-.22-.2-.47-.2-.73,0-.51.25-.98.68-1.25l7.82-4.51v9.02c-.02.53-.3.98-.75,1.23-.22.13-.47.2-.73.19-.26,0-.51-.07-.73-.2Z"/>
      </g>
      <rect class="cls-1" width="61.65" height="61.65"/>
      <g>
        <path class="cls-2" d="M15.12,47.98c-.06,0-.12,0-.18-.03-.15-.05-.26-.14-.32-.27l-2.66-5.24-2.65,5.23c-.07.14-.19.24-.34.29-.06.02-.12.03-.18.03-.09,0-.18-.02-.26-.06-.14-.07-.24-.19-.29-.33-.05-.14-.04-.3.03-.44l3.67-7.24,3.67,7.24c.07.14.08.29.03.43-.05.15-.15.27-.28.34-.08.04-.17.06-.26.06Z"/>
        <path class="cls-2" d="M53.43,47.83h-1.37l-1.73-2.49s0,0,0,0c0,0,0,0,0,0-.04-.06-.11-.09-.18-.09s-.14.03-.18.09c0,0,0,0,0,0,0,0,0,0,0,0l-1.73,2.49h-1.37l2.42-3.49s0,0,0,0c0,0,0,0,0,0,.1-.15.1-.34,0-.49,0,0,0,0,0,0,0,0,0,0,0,0l-2.35-3.38h1.37l1.66,2.38s0,0,0,0c0,0,0,0,0,0,.04.06.11.09.18.09s.14-.03.18-.09c0,0,0,0,0,0,0,0,0,0,0,0l1.65-2.38h1.37v.02s-2.35,3.36-2.35,3.36c0,0,0,0,0,0,0,0,0,0,0,0-.1.15-.1.35,0,.5l2.43,3.49Z"/>
        <path class="cls-2" d="M33.94,46.09h1.13c-.13.5-.37.93-.76,1.27-.48.41-1.09.62-1.82.62-.81,0-1.46-.25-1.93-.75-.51-.52-.77-1.23-.77-2.12,0-.81.23-1.48.72-2.03.47-.56,1.12-.83,1.93-.83.89,0,1.59.3,2.06.9.43.55.65,1.3.66,2.27h-3.26c-.23,0-.42-.19-.42-.42s.19-.42.42-.42h2.07c-.11-.94-.61-1.42-1.5-1.42-.43,0-.76.12-1.01.37-.23.24-.56.61-.56,1.44s.26,1.39.52,1.67c.26.27.61.42,1.05.42.4,0,.71-.09.96-.27.19-.15.35-.39.5-.7Z"/>
        <path class="cls-2" d="M27.93,43.56v2.7c0,.44.35.79.79.79.12,0,.24.05.33.14h0c.08.09.13.2.13.33s-.05.24-.13.32h0c-.09.09-.2.14-.33.14h-.25c-.92,0-1.67-.75-1.67-1.67v-2.75s-.04-.09-.09-.09h-.94v-.92h.94s.09-.04.09-.09v-.93l1.13-1.03v1.95s.04.09.09.09h1.17v.92h-1.17s-.09.04-.09.09Z"/>
        <path class="cls-2" d="M46.24,44.66v3.17h-1.12v-3.18c0-.33-.14-.65-.37-.89-.24-.24-.56-.37-.9-.37s-.66.14-.9.37c-.15.15-.26.33-.32.53t0,0c-.04.12-.05.24-.05.36v3.17h-1.12v-7.15c0-.15.06-.29.15-.39.1-.11.25-.17.41-.17s.31.07.41.17c.1.1.16.24.16.39v2.33s.02.07.05.08c0,0,.01,0,.02,0,0,0,.01,0,.02,0,.02,0,.04,0,.06-.02.39-.34.88-.53,1.4-.53.35,0,.69.09,1,.25.18.1.35.22.5.37.4.4.62.94.62,1.5Z"/>
        <path class="cls-2" d="M19.59,42.7v1.05c-.38-.18-.82-.2-1.22-.03-.39.16-.69.47-.83.86-.06.17-.1.34-.1.53v2.73h-1.14v-4.71c0-.16.07-.31.18-.41.1-.1.24-.16.39-.16s.29.06.39.16c.11.1.18.25.18.41v.21s.02.07.06.08c0,0,0,0,0,0,.04,0,.08-.01.1-.05.16-.31.42-.56.76-.7.12-.05.25-.09.38-.1,0,0,.01,0,.01,0,.04,0,.08,0,.11,0,.21,0,.4.03.56.08h0c.05.02.1.04.15.07Z"/>
        <path class="cls-2" d="M23.13,45s0,0,0,0h0c-.16-.2-.14-.48.05-.65h0s0,0,0,0l1.98-1.8h-1.46l-1.87,1.73c-.15.14-.41.03-.41-.18v-3.42c0-.19-.1-.36-.24-.46-.09-.06-.2-.1-.33-.1s-.23.04-.32.1c-.15.1-.24.27-.24.46v7.14h1.13v-1.9c0-.2.13-.38.32-.45.06-.02.13-.03.2-.02.13.01.25.07.33.17l1.77,2.19h1.45l-2.37-2.83Z"/>
        <path class="cls-2" d="M39.71,46.08c-.17.65-.62.98-1.36.98-.49,0-.85-.18-1.1-.52-.27-.35-.39-.83-.39-1.44s.13-1.09.41-1.43c.26-.35.63-.52,1.1-.52.39,0,.7.09.93.26.18.13.31.31.39.56.03.1.09.18.17.25.03.03.07.05.11.07.13.06.28.07.42.02.06-.02.11-.05.15-.09.07-.05.12-.12.15-.2.06-.13.06-.28.02-.41,0,0,0-.01,0-.02s0-.01,0-.02c-.14-.36-.36-.66-.64-.87-.43-.32-.99-.47-1.7-.47-.85,0-1.51.28-1.99.85-.45.52-.67,1.19-.67,2.01s.22,1.51.68,2.04c.47.55,1.12.82,1.96.82.7,0,1.28-.18,1.7-.53.37-.31.64-.77.79-1.36h-1.12Z"/>
      </g>
    </g>
  </g>
</svg>