<?xml version="1.0" encoding="UTF-8"?>
<svg id="Layer_2" data-name="Layer 2" xmlns="http://www.w3.org/2000/svg" xmlns:xlink="http://www.w3.org/1999/xlink" viewBox="0 0 171.34 43.28">
  <defs>
    <style>
      .cls-1 {
        fill: none;
      }

      .cls-2 {
        fill: url(#linear-gradient-5);
      }

      .cls-3 {
        fill: url(#linear-gradient-6);
      }

      .cls-4 {
        fill: url(#linear-gradient-4);
      }

      .cls-5 {
        fill: url(#linear-gradient-3);
      }

      .cls-6 {
        fill: url(#linear-gradient-2);
      }

      .cls-7 {
        fill: url(#linear-gradient);
      }

      .cls-8 {
        fill: #41d2a5;
      }

      .cls-9 {
        fill: #64d241;
      }

      .cls-10 {
        fill: #c8e13c;
      }
    </style>
    <linearGradient id="linear-gradient" x1="1830.19" y1="154.59" x2="1830.15" y2="162.51" gradientTransform="translate(-1638.31 805.18) rotate(-30)" gradientUnits="userSpaceOnUse">
      <stop offset="0" stop-color="#c8e13c"/>
      <stop offset=".46" stop-color="#64d241"/>
      <stop offset=".57" stop-color="#5ed250"/>
      <stop offset=".79" stop-color="#50d277"/>
      <stop offset="1" stop-color="#41d2a5"/>
    </linearGradient>
    <linearGradient id="linear-gradient-2" x1="-2664.76" y1="7684.96" x2="-2664.8" y2="7692.87" gradientTransform="translate(1560.42 8007.59) rotate(150)" xlink:href="#linear-gradient"/>
    <linearGradient id="linear-gradient-3" x1="4034.62" y1="3993.33" x2="4034.58" y2="4001.25" gradientTransform="translate(-3967.15 4058.3) rotate(-90)" xlink:href="#linear-gradient"/>
    <linearGradient id="linear-gradient-4" x1="-4869.19" y1="3846.22" x2="-4869.23" y2="3854.13" gradientTransform="translate(3869.68 4889.32) rotate(90)" xlink:href="#linear-gradient"/>
    <linearGradient id="linear-gradient-5" x1="1812.38" y1="7821.8" x2="1812.34" y2="7829.72" gradientTransform="translate(-2314.28 7701.68) rotate(-150)" xlink:href="#linear-gradient"/>
    <linearGradient id="linear-gradient-6" x1="-2646.96" y1="17.76" x2="-2647" y2="25.68" gradientTransform="translate(2323.82 1330.3) rotate(30)" xlink:href="#linear-gradient"/>
  </defs>
  <g id="Layer_1-2" data-name="Layer 1">
    <g>
      <rect class="cls-1" width="171.34" height="43.28"/>
      <g>
        <g>
          <path class="cls-8" d="M55.65,32.13c-.15,0-.31-.02-.46-.07-.38-.14-.67-.38-.84-.71l-6.92-13.63-6.89,13.59c-.18.35-.49.62-.87.75-.15.05-.3.07-.46.07-.24,0-.46-.05-.66-.16-.36-.19-.63-.5-.74-.87-.13-.37-.1-.77.08-1.14l9.54-18.82,9.54,18.83c.17.36.2.76.08,1.12-.12.39-.38.69-.74.87-.21.11-.43.16-.67.16Z"/>
          <path class="cls-8" d="M155.24,31.75h-3.57l-4.5-6.48s0,0,0,0c0,0,0,0,0,0-.11-.15-.28-.24-.46-.24s-.36.09-.47.24c0,0,0,0,0,0,0,0,0,0,0,0l-4.51,6.48h-3.57l6.3-9.06s0-.01.01-.02c0,0,0,0,0-.01.26-.39.26-.89,0-1.28,0,0,0,0,0-.01,0,0,0-.01-.01-.02l-6.1-8.78h3.57l4.3,6.19s0,0,0,0c0,0,0,0,0,0,.11.15.28.24.47.24s.36-.09.46-.24c0,0,0,0,0,0,0,0,0,0,0,0l4.3-6.19h3.57l-.03.05-6.06,8.73s0,.01-.01.01c0,0,0,0,0,.01-.26.39-.26.9,0,1.29l6.31,9.08Z"/>
          <path class="cls-8" d="M104.59,27.22h2.93c-.33,1.31-.97,2.43-1.97,3.3-1.25,1.07-2.82,1.61-4.73,1.61-2.1,0-3.79-.66-5.01-1.94-1.33-1.36-1.99-3.19-1.99-5.51,0-2.1.61-3.85,1.88-5.27,1.22-1.45,2.91-2.16,5.01-2.16,2.33,0,4.12.77,5.34,2.35,1.11,1.42,1.69,3.38,1.72,5.89h-8.46c-.6,0-1.09-.49-1.09-1.09s.49-1.09,1.09-1.09h5.39c-.28-2.45-1.58-3.68-3.9-3.68-1.11,0-1.97.3-2.63.96-.61.63-1.46,1.58-1.46,3.73s.69,3.61,1.35,4.34c.67.71,1.58,1.09,2.74,1.09,1.03,0,1.86-.24,2.49-.71.5-.38.92-1.01,1.3-1.83Z"/>
          <path class="cls-8" d="M88.95,20.65v7.02c0,1.13.92,2.06,2.06,2.06.32,0,.62.12.85.35h0c.22.23.34.53.34.85s-.13.62-.34.84h0c-.22.24-.53.37-.85.37h-.65c-2.4,0-4.34-1.94-4.34-4.34v-7.14c0-.13-.11-.23-.23-.23h-2.43v-2.4h2.43c.12,0,.23-.11.23-.23v-2.41l2.93-2.67v5.08c0,.12.1.23.23.23h3.04v2.4h-3.04c-.13,0-.23.1-.23.23Z"/>
          <path class="cls-8" d="M136.55,23.51v8.25h-2.92v-8.27c0-.87-.36-1.69-.97-2.31-.62-.62-1.46-.97-2.34-.97s-1.72.35-2.34.97c-.39.39-.67.86-.82,1.38t0,.01c-.09.31-.14.62-.14.95v8.25h-2.92V13.17c0-.39.15-.75.4-1,.27-.28.64-.45,1.05-.45s.8.17,1.05.45c.26.26.41.62.41,1v6.05c0,.09.05.17.14.21.01,0,.03,0,.04.01.01,0,.03,0,.04,0,.06,0,.11-.02.16-.06,1-.89,2.29-1.38,3.64-1.38.91,0,1.8.22,2.59.64.47.26.92.58,1.31.97,1.03,1.03,1.61,2.43,1.61,3.89Z"/>
          <path class="cls-9" d="M67.27,18.41v2.74c-.98-.48-2.14-.52-3.18-.09-1.01.42-1.78,1.23-2.16,2.22-.16.43-.25.89-.25,1.37v7.09h-2.95v-12.25c0-.43.18-.81.47-1.07.26-.26.62-.41,1.01-.41s.75.15,1.01.41c.29.26.47.65.47,1.07v.53c0,.09.06.18.16.22,0,0,.01,0,.02,0,.1.02.21-.03.26-.12.41-.8,1.1-1.45,1.97-1.82.32-.14.66-.22.99-.26.01,0,.03,0,.03,0,.09-.01.2-.01.3-.01.53,0,1.03.07,1.45.2h0c.14.05.26.1.39.17Z"/>
          <path class="cls-10" d="M76.49,24.4s0,0,0,0h0c-.42-.51-.37-1.25.12-1.7h0s0,0,0,0l5.15-4.67h-3.8l-4.86,4.5c-.4.37-1.05.09-1.05-.46v-8.88c0-.49-.25-.94-.62-1.2-.24-.16-.53-.27-.85-.27s-.6.1-.84.27c-.38.27-.63.7-.63,1.2v18.57h2.94v-4.93c0-.52.34-.99.84-1.17.16-.05.34-.08.52-.05.33.03.65.18.87.45l4.6,5.69h3.78l-6.16-7.35Z"/>
          <path class="cls-8" d="M119.59,27.22c-.43,1.68-1.61,2.54-3.55,2.54-1.28,0-2.22-.47-2.85-1.34-.7-.9-1.03-2.16-1.03-3.74s.33-2.84,1.05-3.71c.69-.9,1.63-1.34,2.85-1.34,1,0,1.81.22,2.42.69.46.33.8.82,1.02,1.46.09.25.24.48.45.64.09.07.18.14.28.18.34.16.73.19,1.09.06.15-.06.28-.14.4-.24.17-.13.31-.31.4-.51.15-.34.16-.72.04-1.05,0-.01,0-.03-.01-.04s-.01-.04-.02-.05c-.37-.95-.93-1.71-1.66-2.27-1.11-.82-2.58-1.23-4.41-1.23-2.22,0-3.93.74-5.18,2.22-1.16,1.36-1.74,3.1-1.74,5.23s.58,3.93,1.77,5.3c1.22,1.42,2.91,2.13,5.1,2.13,1.83,0,3.32-.47,4.43-1.37.97-.81,1.66-2,2.04-3.55h-2.9Z"/>
        </g>
        <g>
          <path class="cls-7" d="M29.99,29.5c-.35.2-.78.2-1.13,0l-2.6-1.5v3c0,.4-.22.78-.57.98-.17.1-.37.15-.57.15-.2,0-.39-.05-.57-.15-.34-.19-.56-.54-.58-.94v-6.99s6.05,3.49,6.05,3.49c.35.22.54.58.53.98,0,.2-.05.39-.15.56-.1.17-.24.32-.42.42Z"/>
          <path class="cls-6" d="M20.24,14.32c.35-.2.78-.2,1.13,0l2.6,1.5v-3c0-.4.22-.78.57-.98.17-.1.37-.15.57-.15.2,0,.39.05.57.15.34.19.56.54.58.94v6.99s-6.05-3.49-6.05-3.49c-.35-.22-.54-.58-.53-.98,0-.2.05-.39.15-.56.1-.17.24-.32.42-.42Z"/>
          <path class="cls-5" d="M34.12,21.48c0,.41-.22.78-.57.98l-2.59,1.5,2.6,1.5c.35.2.57.57.57.98,0,.2-.05.4-.15.57-.1.17-.24.31-.42.42-.34.2-.75.21-1.11.03l-6.05-3.5,6.05-3.49c.36-.19.77-.18,1.11.03.17.09.32.24.41.41.1.17.15.37.15.57Z"/>
          <path class="cls-4" d="M16.1,22.33c0-.41.22-.78.57-.98l2.59-1.5-2.6-1.5c-.35-.2-.57-.57-.57-.98,0-.2.05-.4.15-.57.1-.17.24-.31.42-.42.34-.2.75-.21,1.11-.03l6.05,3.5-6.05,3.49c-.36.19-.77.18-1.11-.03-.17-.09-.32-.24-.41-.41-.1-.17-.15-.37-.15-.57Z"/>
          <path class="cls-2" d="M29.25,13.89c.35.2.57.58.57.98v3s2.6-1.5,2.6-1.5c.35-.2.78-.2,1.13,0,.17.1.32.24.42.42.1.17.15.37.15.57,0,.39-.19.76-.53.97l-6.05,3.49v-6.98c.01-.41.23-.76.58-.95.17-.1.36-.15.56-.15.2,0,.4.05.57.15Z"/>
          <path class="cls-3" d="M20.97,29.92c-.35-.2-.57-.58-.57-.98v-3s-2.6,1.5-2.6,1.5c-.35.2-.78.2-1.13,0-.17-.1-.32-.24-.42-.42-.1-.17-.15-.37-.15-.57,0-.39.19-.76.53-.97l6.05-3.49v6.98c-.01.41-.23.76-.58.95-.17.1-.36.15-.56.15-.2,0-.4-.05-.57-.15Z"/>
        </g>
      </g>
    </g>
  </g>
</svg>